<svg xmlns="http://www.w3.org/2000/svg" viewBox="0 0 800 320" width="100%" height="100%">
  <defs>
    <!-- Background Gradient -->
    <linearGradient id="bg-grad" x1="0%" y1="0%" x2="100%" y2="100%">
      <stop offset="0%" stop-color="#070A13" />
      <stop offset="50%" stop-color="#0F1423" />
      <stop offset="100%" stop-color="#15132E" />
    </linearGradient>

    <!-- Glowing Accents -->
    <radialGradient id="glow-purple" cx="20%" cy="30%" r="50%">
      <stop offset="0%" stop-color="#8B5CF6" stop-opacity="0.15" />
      <stop offset="100%" stop-color="#8B5CF6" stop-opacity="0" />
    </radialGradient>
    <radialGradient id="glow-emerald" cx="80%" cy="70%" r="60%">
      <stop offset="0%" stop-color="#10B981" stop-opacity="0.12" />
      <stop offset="100%" stop-color="#10B981" stop-opacity="0" />
    </radialGradient>

    <!-- Synapse Logo Glow -->
    <filter id="glow-logo" x="-20%" y="-20%" width="140%" height="140%">
      <feGaussianBlur stdDeviation="6" result="blur" />
      <feComposite in="SourceGraphic" in2="blur" operator="over" />
    </filter>

    <!-- Node Glow -->
    <filter id="glow-node" x="-30%" y="-30%" width="160%" height="160%">
      <feGaussianBlur stdDeviation="3" result="blur" />
      <feComposite in="SourceGraphic" in2="blur" operator="over" />
    </filter>
  </defs>

  <style>
    .title { font-family: 'Outfit', 'Inter', system-ui, -apple-system, sans-serif; font-weight: 800; font-size: 42px; fill: #FFFFFF; letter-spacing: 3px; }
    .subtitle { font-family: 'Inter', system-ui, -apple-system, sans-serif; font-weight: 500; font-size: 15px; fill: #9CA3AF; letter-spacing: 0.5px; }
    .tagline { font-family: 'Inter', system-ui, -apple-system, sans-serif; font-weight: 400; font-size: 13px; fill: #6B7280; }
    .badge-text { font-family: 'Inter', system-ui, -apple-system, sans-serif; font-weight: 600; font-size: 11px; fill: #10B981; }
    .badge-bg { fill: #10B981; fill-opacity: 0.1; stroke: #10B981; stroke-opacity: 0.2; stroke-width: 1px; }
    .conn-line { stroke: #4B5563; stroke-opacity: 0.25; stroke-dasharray: 4 4; }
    .network-node { fill: #8B5CF6; fill-opacity: 0.8; }
    .network-node-active { fill: #10B981; filter: url(#glow-node); }
    .pulse { animation: blink 3s infinite ease-in-out; }
    @keyframes blink { 0%, 100% { opacity: 0.3; } 50% { opacity: 1; } }
  </style>

  <!-- Background Layer -->
  <rect width="800" height="320" fill="url(#bg-grad)" />
  <rect width="800" height="320" fill="url(#glow-purple)" />
  <rect width="800" height="320" fill="url(#glow-emerald)" />

  <!-- Network / Mesh Background (Connecting Lines) -->
  <g class="pulse">
    <line x1="50" y1="60" x2="180" y2="120" class="conn-line" />
    <line x1="180" y1="120" x2="120" y2="240" class="conn-line" />
    <line x1="120" y1="240" x2="280" y2="200" class="conn-line" />
    <line x1="180" y1="120" x2="280" y2="200" class="conn-line" />
    
    <!-- Right side connections -->
    <line x1="520" y1="90" x2="640" y2="50" class="conn-line" />
    <line x1="640" y1="50" x2="720" y2="160" class="conn-line" />
    <line x1="640" y1="50" x2="600" y2="220" class="conn-line" />
    <line x1="600" y1="220" x2="720" y2="160" class="conn-line" />
    <line x1="720" y1="160" x2="750" y2="260" class="conn-line" />

    <!-- Cross connections to Logo center -->
    <line x1="280" y1="200" x2="380" y2="160" class="conn-line" stroke-width="0.5" />
    <line x1="600" y1="220" x2="420" y2="160" class="conn-line" stroke-width="0.5" />
    <line x1="520" y1="90" x2="420" y2="100" class="conn-line" stroke-width="0.5" />
  </g>

  <!-- Network Nodes -->
  <g>
    <circle cx="50" cy="60" r="3" class="network-node" />
    <circle cx="180" cy="120" r="4.5" class="network-node" />
    <circle cx="120" cy="240" r="3.5" class="network-node" />
    <circle cx="280" cy="200" r="5" class="network-node-active" />
    
    <circle cx="520" cy="90" r="3.5" class="network-node" />
    <circle cx="640" cy="50" r="4" class="network-node" />
    <circle cx="720" cy="160" r="5.5" class="network-node-active" />
    <circle cx="600" cy="220" r="3" class="network-node" />
    <circle cx="750" cy="260" r="4" class="network-node" />
  </g>

  <!-- Central Synapse Logo Graphic -->
  <g transform="translate(400, 115)" filter="url(#glow-logo)">
    <!-- Inner glowing network core -->
    <circle cx="0" cy="0" r="32" fill="#8B5CF6" fill-opacity="0.15" />
    
    <!-- Outer ring -->
    <circle cx="0" cy="0" r="36" fill="none" stroke="#8B5CF6" stroke-width="1.5" stroke-opacity="0.4" />
    
    <!-- Interlocking Synapse paths (Representing P2P sync and synapses) -->
    <path d="M -22 -12 C -8 -26, 8 -26, 22 -12 C 10 -4, -10 -4, -22 -12 Z" fill="#8B5CF6" fill-opacity="0.75" />
    <path d="M 22 12 C 8 26, -8 26, -22 12 C -10 4, 10 4, 22 12 Z" fill="#10B981" fill-opacity="0.75" />
    <circle cx="-22" cy="-12" r="4" fill="#8B5CF6" />
    <circle cx="22" cy="-12" r="4" fill="#8B5CF6" />
    <circle cx="-22" cy="12" r="4" fill="#10B981" />
    <circle cx="22" cy="12" r="4" fill="#10B981" />
    
    <!-- Connecting central synapse junctions -->
    <line x1="-22" y1="-12" x2="22" y2="12" stroke="#FFFFFF" stroke-opacity="0.3" stroke-width="1" />
    <line x1="22" y1="-12" x2="-22" y2="12" stroke="#FFFFFF" stroke-opacity="0.3" stroke-width="1" />
    <circle cx="0" cy="0" r="6" fill="#FFFFFF" />
  </g>

  <!-- Brand Typography -->
  <text x="400" y="212" text-anchor="middle" class="title">SYNAPSE</text>
  <text x="400" y="238" text-anchor="middle" class="subtitle">A Modern, Premium Cross-Platform client for Syncthing</text>
  <text x="400" y="258" text-anchor="middle" class="tagline">Built with Compose Multiplatform &amp; Kotlin</text>

  <!-- Platform Badges -->
  <g transform="translate(185, 278)">
    <!-- Android -->
    <g transform="translate(0, 0)">
      <rect width="76" height="20" rx="10" class="badge-bg" />
      <text x="38" y="14" text-anchor="middle" class="badge-text">Android</text>
    </g>
    <!-- iOS -->
    <g transform="translate(86, 0)">
      <rect width="60" height="20" rx="10" class="badge-bg" />
      <text x="30" y="14" text-anchor="middle" class="badge-text">iOS</text>
    </g>
    <!-- Desktop -->
    <g transform="translate(156, 0)">
      <rect width="78" height="20" rx="10" class="badge-bg" />
      <text x="39" y="14" text-anchor="middle" class="badge-text">Desktop</text>
    </g>
    <!-- Web (Wasm) -->
    <g transform="translate(244, 0)">
      <rect width="98" height="20" rx="10" class="badge-bg" />
      <text x="49" y="14" text-anchor="middle" class="badge-text">Web (Wasm)</text>
    </g>
    <!-- Server -->
    <g transform="translate(352, 0)">
      <rect width="78" height="20" rx="10" class="badge-bg" />
      <text x="39" y="14" text-anchor="middle" class="badge-text">Ktor API</text>
    </g>
  </g>
</svg>
